<?xml version="1.0" encoding="UTF-8" standalone="no"?>
<!DOCTYPE svg PUBLIC "-//W3C//DTD SVG 1.1//EN"
 "http://www.w3.org/Graphics/SVG/1.1/DTD/svg11.dtd">
<!-- Generated by graphviz version 12.1.0 (20240811.2233)
 -->
<!-- Title: z Pages: 1 -->
<svg width="734pt" height="111pt"
 viewBox="0.00 0.00 733.70 110.73" xmlns="http://www.w3.org/2000/svg" xmlns:xlink="http://www.w3.org/1999/xlink">
<g id="graph0" class="graph" transform="scale(1 1) rotate(0) translate(4 106.73)">
<title>z</title>
<polygon fill="white" stroke="none" points="-4,4 -4,-106.73 729.7,-106.73 729.7,4 -4,4"/>
<!-- z -->
<g id="node1" class="node">
<title>z</title>
<polygon fill="none" stroke="black" points="561.7,-35.23 561.7,-71.23 725.7,-71.23 725.7,-35.23 561.7,-35.23"/>
<text text-anchor="middle" x="572.7" y="-48.43" font-family="Times,serif" font-size="14.00">z</text>
<polyline fill="none" stroke="black" points="583.7,-35.73 583.7,-71.23"/>
<text text-anchor="middle" x="654.7" y="-48.43" font-family="Times,serif" font-size="14.00">[ 6.718,17.389,38.086]</text>
</g>
<!-- z_op -->
<g id="node2" class="node">
<title>z_op</title>
<ellipse fill="none" stroke="black" cx="507.7" cy="-53.23" rx="18" ry="18"/>
<text text-anchor="middle" x="507.7" y="-48.18" font-family="Times,serif" font-size="14.00">+</text>
</g>
<!-- z_op&#45;&gt;z -->
<g id="edge1" class="edge">
<title>z_op&#45;&gt;z</title>
<path fill="none" stroke="black" d="M525.94,-53.23C532.68,-53.23 540.95,-53.23 549.95,-53.23"/>
<polygon fill="black" stroke="black" points="549.73,-56.73 559.73,-53.23 549.73,-49.73 549.73,-56.73"/>
</g>
<!-- x * y -->
<g id="node3" class="node">
<title>x * y</title>
<polygon fill="none" stroke="black" points="267.95,-64.23 267.95,-100.23 453.7,-100.23 453.7,-64.23 267.95,-64.23"/>
<text text-anchor="middle" x="289.83" y="-77.43" font-family="Times,serif" font-size="14.00">x * y</text>
<polyline fill="none" stroke="black" points="311.7,-64.73 311.7,-100.23"/>
<text text-anchor="middle" x="382.7" y="-77.43" font-family="Times,serif" font-size="14.00">[ 4.000,10.000,18.000]</text>
</g>
<!-- x * y&#45;&gt;z_op -->
<g id="edge5" class="edge">
<title>x * y&#45;&gt;z_op</title>
<path fill="none" stroke="black" d="M453.99,-63.78C462.82,-62.01 471.22,-60.33 478.63,-58.85"/>
<polygon fill="black" stroke="black" points="479.08,-62.32 488.2,-56.93 477.71,-55.46 479.08,-62.32"/>
</g>
<!-- x * y_op -->
<g id="node4" class="node">
<title>x * y_op</title>
<ellipse fill="none" stroke="black" cx="207.73" cy="-84.23" rx="18" ry="18"/>
<text text-anchor="middle" x="207.73" y="-79.18" font-family="Times,serif" font-size="14.00">*</text>
</g>
<!-- x * y_op&#45;&gt;x * y -->
<g id="edge2" class="edge">
<title>x * y_op&#45;&gt;x * y</title>
<path fill="none" stroke="black" d="M226.06,-84C234.28,-83.89 244.84,-83.75 256.42,-83.59"/>
<polygon fill="black" stroke="black" points="256.31,-87.1 266.27,-83.46 256.22,-80.1 256.31,-87.1"/>
</g>
<!-- x -->
<g id="node5" class="node">
<title>x</title>
<polygon fill="none" stroke="black" points="0,-8.23 0,-44.23 147.5,-44.23 147.5,-8.23 0,-8.23"/>
<text text-anchor="middle" x="11.38" y="-21.43" font-family="Times,serif" font-size="14.00">x</text>
<polyline fill="none" stroke="black" points="22.75,-8.73 22.75,-44.23"/>
<text text-anchor="middle" x="85.12" y="-21.43" font-family="Times,serif" font-size="14.00">[1.000,2.000,3.000]</text>
</g>
<!-- x&#45;&gt;x * y_op -->
<g id="edge3" class="edge">
<title>x&#45;&gt;x * y_op</title>
<path fill="none" stroke="black" d="M118.3,-44.57C127.93,-48.69 138.08,-53.07 147.5,-57.23 158.36,-62.01 170.27,-67.42 180.55,-72.12"/>
<polygon fill="black" stroke="black" points="179.01,-75.27 189.56,-76.27 181.94,-68.91 179.01,-75.27"/>
</g>
<!-- e^x_op -->
<g id="node8" class="node">
<title>e^x_op</title>
<ellipse fill="none" stroke="black" cx="207.73" cy="-24.23" rx="24.23" ry="24.23"/>
<text text-anchor="middle" x="207.73" y="-19.18" font-family="Times,serif" font-size="14.00">exp</text>
</g>
<!-- x&#45;&gt;e^x_op -->
<g id="edge7" class="edge">
<title>x&#45;&gt;e^x_op</title>
<path fill="none" stroke="black" d="M147.69,-25.12C156.14,-24.99 164.43,-24.87 172.01,-24.75"/>
<polygon fill="black" stroke="black" points="171.8,-28.26 181.74,-24.6 171.69,-21.26 171.8,-28.26"/>
</g>
<!-- y -->
<g id="node6" class="node">
<title>y</title>
<polygon fill="none" stroke="black" points="0,-66.23 0,-102.23 147.5,-102.23 147.5,-66.23 0,-66.23"/>
<text text-anchor="middle" x="11.38" y="-79.43" font-family="Times,serif" font-size="14.00">y</text>
<polyline fill="none" stroke="black" points="22.75,-66.73 22.75,-102.23"/>
<text text-anchor="middle" x="85.12" y="-79.43" font-family="Times,serif" font-size="14.00">[4.000,5.000,6.000]</text>
</g>
<!-- y&#45;&gt;x * y_op -->
<g id="edge4" class="edge">
<title>y&#45;&gt;x * y_op</title>
<path fill="none" stroke="black" d="M147.69,-84.23C158.42,-84.23 168.91,-84.23 178,-84.23"/>
<polygon fill="black" stroke="black" points="177.9,-87.73 187.9,-84.23 177.9,-80.73 177.9,-87.73"/>
</g>
<!-- e^x -->
<g id="node7" class="node">
<title>e^x</title>
<polygon fill="none" stroke="black" points="273.58,-8.23 273.58,-44.23 448.08,-44.23 448.08,-8.23 273.58,-8.23"/>
<text text-anchor="middle" x="291.33" y="-21.43" font-family="Times,serif" font-size="14.00">e^x</text>
<polyline fill="none" stroke="black" points="309.08,-8.73 309.08,-44.23"/>
<text text-anchor="middle" x="378.58" y="-21.43" font-family="Times,serif" font-size="14.00">[ 2.718, 7.389,20.086]</text>
</g>
<!-- e^x&#45;&gt;z_op -->
<g id="edge8" class="edge">
<title>e^x&#45;&gt;z_op</title>
<path fill="none" stroke="black" d="M448.19,-42.32C459.02,-44.34 469.42,-46.28 478.37,-47.95"/>
<polygon fill="black" stroke="black" points="477.62,-51.37 488.09,-49.76 478.91,-44.48 477.62,-51.37"/>
</g>
<!-- e^x_op&#45;&gt;e^x -->
<g id="edge6" class="edge">
<title>e^x_op&#45;&gt;e^x</title>
<path fill="none" stroke="black" d="M232.34,-24.54C240.77,-24.65 250.89,-24.78 261.68,-24.93"/>
<polygon fill="black" stroke="black" points="261.58,-28.43 271.62,-25.06 261.67,-21.43 261.58,-28.43"/>
</g>
</g>
</svg>
